<svg width="21" height="21" viewBox="0 0 21 21" fill="none" xmlns="http://www.w3.org/2000/svg">
<path d="M10.4998 2.625C15.2178 2.625 19.1431 6.02 19.9665 10.5C19.144 14.98 15.2178 18.375 10.4998 18.375C5.78183 18.375 1.85658 14.98 1.0332 10.5C1.8557 6.02 5.78183 2.625 10.4998 2.625ZM10.4998 16.625C12.2844 16.6246 14.0159 16.0185 15.4111 14.9058C16.8062 13.7931 17.7824 12.2397 18.1797 10.5C17.7809 8.76164 16.8041 7.21 15.4091 6.09877C14.0141 4.98754 12.2833 4.38246 10.4998 4.38246C8.71631 4.38246 6.98556 4.98754 5.59053 6.09877C4.19551 7.21 3.21875 8.76164 2.81995 10.5C3.21729 12.2397 4.19342 13.7931 5.58858 14.9058C6.98374 16.0185 8.71529 16.6246 10.4998 16.625ZM10.4998 14.4375C9.45554 14.4375 8.45402 14.0227 7.7156 13.2842C6.97717 12.5458 6.56233 11.5443 6.56233 10.5C6.56233 9.45571 6.97717 8.45419 7.7156 7.71577C8.45402 6.97734 9.45554 6.5625 10.4998 6.5625C11.5441 6.5625 12.5456 6.97734 13.2841 7.71577C14.0225 8.45419 14.4373 9.45571 14.4373 10.5C14.4373 11.5443 14.0225 12.5458 13.2841 13.2842C12.5456 14.0227 11.5441 14.4375 10.4998 14.4375ZM10.4998 12.6875C11.08 12.6875 11.6364 12.457 12.0466 12.0468C12.4569 11.6366 12.6873 11.0802 12.6873 10.5C12.6873 9.91984 12.4569 9.36344 12.0466 8.9532C11.6364 8.54297 11.08 8.3125 10.4998 8.3125C9.91967 8.3125 9.36327 8.54297 8.95303 8.9532C8.5428 9.36344 8.31233 9.91984 8.31233 10.5C8.31233 11.0802 8.5428 11.6366 8.95303 12.0468C9.36327 12.457 9.91967 12.6875 10.4998 12.6875Z" fill="#979797"/>
</svg>
