<svg width="21" height="19" viewBox="0 0 21 19" fill="none" xmlns="http://www.w3.org/2000/svg">
<path d="M20.8609 8.80669C20.0143 7.02303 19.0068 5.56836 17.8384 4.44268L16.613 5.66807C17.6122 6.623 18.4826 7.87223 19.2352 9.42805C17.2315 13.5753 14.3871 15.5454 10.5 15.5454C9.3332 15.5454 8.25849 15.3657 7.27587 15.0064L5.94812 16.3341C7.31288 16.9643 8.83017 17.2794 10.5 17.2794C15.1289 17.2794 18.5826 14.8686 20.8609 10.047C20.9525 9.8531 21 9.6413 21 9.42685C21 9.21239 20.9525 9.0006 20.8609 8.80669ZM19.3299 1.08441L18.3032 0.0565079C18.2853 0.038594 18.264 0.0243829 18.2407 0.0146868C18.2173 0.00499075 18.1922 0 18.1669 0C18.1416 0 18.1165 0.00499075 18.0931 0.0146868C18.0697 0.0243829 18.0484 0.038594 18.0306 0.0565079L15.3965 2.68936C13.9442 1.94758 12.3121 1.57669 10.5 1.57669C5.87105 1.57669 2.41741 3.98749 0.139073 8.8091C0.0474951 9.00301 0 9.2148 0 9.42926C0 9.64371 0.0474951 9.8555 0.139073 10.0494C1.04929 11.9665 2.14511 13.5031 3.42653 14.6593L0.877969 17.2072C0.841863 17.2433 0.821581 17.2923 0.821581 17.3434C0.821581 17.3944 0.841863 17.4434 0.877969 17.4796L1.90611 18.5077C1.94224 18.5438 1.99123 18.5641 2.04231 18.5641C2.09338 18.5641 2.14237 18.5438 2.1785 18.5077L19.3299 1.35704C19.3478 1.33915 19.362 1.3179 19.3717 1.29451C19.3814 1.27112 19.3864 1.24605 19.3864 1.22073C19.3864 1.19541 19.3814 1.17033 19.3717 1.14694C19.362 1.12355 19.3478 1.1023 19.3299 1.08441ZM1.76474 9.42805C3.77093 5.2808 6.61525 3.31073 10.5 3.31073C11.8135 3.31073 13.0078 3.53616 14.0914 3.99447L12.3983 5.68757C11.5965 5.25976 10.6783 5.10098 9.77941 5.23467C8.88047 5.36835 8.0483 5.78743 7.40566 6.43006C6.76303 7.0727 6.34395 7.90487 6.21026 8.80381C6.07658 9.70275 6.23535 10.6209 6.66317 11.4227L4.65409 13.4318C3.54213 12.4503 2.58359 11.1207 1.76474 9.42805ZM7.70625 9.42805C7.70667 9.00337 7.80726 8.58477 7.99986 8.20627C8.19245 7.82776 8.47161 7.50003 8.81467 7.24968C9.15772 6.99934 9.55499 6.83345 9.9742 6.76548C10.3934 6.69752 10.8227 6.7294 11.2273 6.85854L7.83413 10.2517C7.74909 9.98545 7.70594 9.70758 7.70625 9.42805Z" fill="#979797"/>
<path d="M10.4035 12.1265C10.3202 12.1265 10.238 12.1227 10.1566 12.1152L8.88452 13.3873C9.64964 13.6803 10.4833 13.7455 11.2846 13.5748C12.0859 13.4041 12.8207 13.005 13.4 12.4257C13.9794 11.8463 14.3785 11.1116 14.5492 10.3102C14.7198 9.5089 14.6547 8.67528 14.3617 7.91016L13.0896 9.18227C13.097 9.26367 13.1009 9.3458 13.1009 9.42913C13.1011 9.78341 13.0314 10.1343 12.896 10.4616C12.7605 10.789 12.5618 11.0864 12.3113 11.3369C12.0608 11.5874 11.7633 11.7861 11.436 11.9216C11.1086 12.0571 10.7578 12.1267 10.4035 12.1265Z" fill="#979797"/>
</svg>
