<?xml version="1.0" standalone="no"?>
<!DOCTYPE svg PUBLIC "-//W3C//DTD SVG 20010904//EN"
 "http://www.w3.org/TR/2001/REC-SVG-20010904/DTD/svg10.dtd">
<svg version="1.0" xmlns="http://www.w3.org/2000/svg"
 width="512.000000pt" height="512.000000pt" viewBox="0 0 512.000000 512.000000"
 preserveAspectRatio="xMidYMid meet">

<g transform="translate(0.000000,512.000000) scale(0.100000,-0.100000)"
fill="#000000" stroke="none">
<path d="M398 4929 c-23 -12 -46 -35 -58 -59 -19 -38 -20 -58 -21 -632 l0
-593 -60 -29 c-35 -16 -86 -53 -118 -85 -272 -267 -123 -729 256 -793 311 -52
589 228 536 539 -25 143 -126 280 -250 339 l-62 29 0 183 -1 182 420 0 c402 0
423 1 460 20 26 13 47 34 60 60 19 37 20 58 20 390 0 332 -1 353 -20 390 -13
26 -34 47 -60 60 -38 19 -57 20 -552 20 -491 -1 -515 -2 -550 -21z"/>
<path d="M3890 4624 c-14 -2 -52 -9 -85 -15 -259 -44 -519 -207 -686 -428
-240 -320 -285 -763 -114 -1127 58 -123 113 -203 209 -302 l81 -82 300 -587
c286 -561 302 -589 340 -610 51 -29 99 -29 150 0 38 21 53 49 338 607 l298
585 83 85 c156 161 249 337 298 565 16 78 16 333 0 410 -49 226 -142 403 -298
565 -159 164 -344 268 -568 316 -69 15 -296 27 -346 18z m211 -644 c134 -25
267 -127 328 -251 140 -285 -36 -623 -349 -672 -255 -39 -496 140 -533 398
-46 318 235 584 554 525z"/>
<path d="M1235 3200 l0 -150 285 0 c313 0 351 -5 460 -60 150 -76 260 -257
260 -430 0 -173 -110 -354 -260 -430 -118 -60 -123 -60 -716 -60 -585 0 -621
-3 -758 -54 -251 -95 -440 -323 -492 -593 -70 -367 143 -747 492 -879 147 -55
112 -54 1477 -54 l1262 0 0 150 0 150 -1255 0 c-1377 0 -1305 -3 -1430 60
-150 76 -260 257 -260 430 0 173 110 354 260 430 118 60 123 60 716 60 592 0
624 2 766 58 198 76 369 249 444 448 72 191 71 385 -4 576 -77 199 -249 369
-448 444 -125 47 -192 54 -507 54 l-292 0 0 -150z"/>
<path d="M3889 1092 c-228 -60 -376 -283 -342 -517 55 -381 522 -537 794 -266
182 183 182 479 0 662 -120 119 -286 164 -452 121z"/>
</g>
</svg>
